<?xml version="1.0" encoding="utf-8"?>
<svg data-name="Layer 1" viewBox="0.489 0.381 4.025 4.252" x="0px" y="0px" xmlns="http://www.w3.org/2000/svg">
  <title>Flowers</title>
  <path d="M3.72689,3.343c.02266-.06286.043-.12667.06875-.18825a.54949.54949,0,0,1,.06648-.12355.07684.07684,0,0,1,.10482-.031.10265.10265,0,0,1,.03687.11715c-.01528.04758-.03492.09376-.05019.14135-.016.04992-.02995.10058-.04288.1514a.09148.09148,0,0,0,.00211.04071c.00579.02579.00443.04994-.02278.06-.02633.00976-.04527-.00577-.05845-.02858l-.01225-.0175-.01131.00309a.12974.12974,0,0,0,.00976.03472.63742.63742,0,0,1,.04438.0648.3513.3513,0,0,1,.01452.06975.08629.08629,0,0,0,.01164.03676,3.8126,3.8126,0,0,1,.36726.544,1.63454,1.63454,0,0,0,.21962.29449.05565.05565,0,0,1,.00564.08352c-.02715.02462-.05541.01906-.07668-.018-.048-.08355-.09708-.16664-.14147-.25212A4.56214,4.56214,0,0,0,3.90711,3.747a.552.552,0,0,0-.04386-.06079.04649.04649,0,0,0-.03765-.00872.208.208,0,0,0-.0512.02286c-.08539.04583-.16894.09546-.25625.13724-.08093.03874-.1657.06949-.249.10313a.06174.06174,0,0,1-.0361.00714.0832.0832,0,0,1-.048-.02822.05461.05461,0,0,1,.01485-.04858.774.774,0,0,1,.431-.23989l.01183-.0053L3.651,3.49717a.303.303,0,0,0-.03384.00382.54891.54891,0,0,1-.23453-.00442c-.05673-.01069-.06308-.02065-.07124-.07933L3.29848,3.43a.0657.0657,0,0,1-.102.02442c-.05582-.04108-.11324-.0156-.1701-.01326-.00651.00027-.0152.01752-.01795.02817a.46642.46642,0,0,1-.11655.22759.4363.4363,0,0,1-.38728.13154c-.14138-.02265-.27965-.0655-.41863-.102a.13214.13214,0,0,1-.08973-.07981c-.01492-.03557-.007-.06618.0194-.07818.03486-.01585.05632-.00869.07366.03233a.16486.16486,0,0,0,.09078.07993,1.13915,1.13915,0,0,0,.3205.1144.44681.44681,0,0,0,.44627-.23443l.00692-.019c-.03681-.02516-.071-.04882-.10547-.072a.07192.07192,0,0,0-.08941.02892.04422.04422,0,0,1-.05256.03174l-.01486-.002a.26091.26091,0,0,0-.18885.0174c-.06906.02181-.138.04409-.208.06272-.01212.00323-.0288-.01063-.04337-.0166.00913-.01578.01466-.04017.028-.04578a1.4932,1.4932,0,0,1,.14588-.04847c.02731-.00824.0554-.01388.09378-.0233a.36035.36035,0,0,0-.04416-.025c-.06448-.02379-.1294-.04639-.19405-.06971-.03663-.01321-.05514-.04215-.0456-.07024.009-.0265.03817-.04034.07562-.02517.06234.02525.12175.05766.18313.0854a1.01215,1.01215,0,0,0,.14229.05793.76382.76382,0,0,0,.12728.01436l.004-.01622c-.03944-.01813-.07955-.03493-.11816-.05467a.23243.23243,0,0,1-.142-.15411.06748.06748,0,0,1,.01015-.05333c.00738-.0077.03666-.00319.05.00539a.62053.62053,0,0,1,.09381.07315.686.686,0,0,0,.22066.14665.22766.22766,0,0,0,.09451.0029c.0066-.00045.01773-.01888.01666-.02781a.061.061,0,0,0-.01932-.03851c-.0536-.04073-.11052-.07722-.16288-.1194a.08017.08017,0,0,1-.023-.05715c.00006-.01066.02623-.03178.03657-.02953a.09176.09176,0,0,1,.05648.0347.29866.29866,0,0,0,.10936.09211l.01092-.00437c-.00822-.04716-.01408-.09495-.02626-.14106-.00318-.01205-.02479-.02312-.04-.02751a.83641.83641,0,0,0-.39332-.00606.96282.96282,0,0,0-.48138.26112c-.02682.02473-.04679.05676-.07221.08321a.04219.04219,0,0,1-.03511.01265c-.0114-.00464-.02677-.02267-.025-.032a.11807.11807,0,0,1,.028-.062,1.01686,1.01686,0,0,1,.58043-.30738c.12531-.014.252-.01556.378-.02379a.04984.04984,0,0,0,.03232-.01471c.02217-.02687.05044-.02574.06223.00778a.07046.07046,0,0,0,.04855.04639.50537.50537,0,0,1,.22469.19785.074.074,0,0,1,.01344.053c-.00353.01641-.02051.04028-.03373.04174a.07669.07669,0,0,1-.05659-.02317c-.04359-.04793-.08269-.09992-.12425-.14973a.27016.27016,0,0,0-.0359-.02851c-.0018.05144-.00441.09326-.00381.135a.03768.03768,0,0,0,.01878.02562.76459.76459,0,0,0,.104.04991.48.48,0,0,0,.12688.03218.43127.43127,0,0,0,.1154-.01877c.04742-.0104.09432-.02315.14442-.03563a.09063.09063,0,0,0-.00991-.0223q-.096-.11565-.19284-.23053c-.0494-.05828-.09752-.1179-.15035-.17295-.07968-.083-.16293-.16261-.24483-.24349-.00525-.00519-.01264-.01348-.01779-.01266-.04219.00677-.06108-.0273-.08873-.047a.132.132,0,0,0-.05324-.02149c-.04556-.0076-.0916-.013-.13767-.01623-.009-.00063-.02776.01388-.027.01939a.14806.14806,0,0,1-.06354.1342c-.08876.07231-.184.13707-.27965.20039a.486.486,0,0,1-.27736.08121,2.90779,2.90779,0,0,1-.5863-.02626.62283.62283,0,0,1-.076-.02087.07786.07786,0,0,1-.056-.08583c.00239-.0219-.00824-.0252-.02483-.02821a.12128.12128,0,0,1-.053-.01464.0631.0631,0,0,1-.02435-.04848.06745.06745,0,0,1,.04047-.04106c.02543-.00788.05579.00041.08141-.00714a.91657.91657,0,0,0,.12776-.05069.05536.05536,0,0,0,.02037-.03395.10593.10593,0,0,1,.05354-.07732c.01738-.00836.01955-.02093.00408-.0353-.04112-.03818-.07976-.0793-.12311-.1147a1.774,1.774,0,0,0-.14837-.107c-.03776-.02482-.04859-.05143-.02663-.09094a.7279.7279,0,0,1,.215-.28c.06144-.04073.12072-.08477.18286-.12436a.40242.40242,0,0,1,.07617-.02929c-.04088-.01738-.08209-.0321-.12048-.05218-.02737-.01432-.04869-.0034-.04516.019.00881.05587-.03212.0764-.06257.10427-.07181.06572-.14323.13212-.21861.19359a.24262.24262,0,0,1-.1687.06315.10668.10668,0,0,1-.0727-.03434c-.019-.0265.00823-.051.02561-.07482a1.05853,1.05853,0,0,1,.39909-.26228.08829.08829,0,0,0,.0416-.06668c-.00245-.0281-.03555-.0266-.06439-.02543-.09982.004-.19985.003-.2998.00407a.68427.68427,0,0,0-.30454.08137c.03162.05366.047.06191.102.049a.36271.36271,0,0,0,.193-.0839.04662.04662,0,0,1,.06808-.00148.05983.05983,0,0,1-.00228.08207.52023.52023,0,0,1-.09211.08231,1.16741,1.16741,0,0,1-.13352.06643A.15166.15166,0,0,1,.80516,1.906C.76434,1.88853.72355,1.8707.68178,1.85572.61441,1.83155.55324,1.74207.57364,1.68281a.27881.27881,0,0,1,.06522-.1075,1.17542,1.17542,0,0,1,.13841-.10139l.02592-.01847a.41689.41689,0,0,1-.06588-.0287A1.15256,1.15256,0,0,1,.612,1.33453a.47723.47723,0,0,1-.07091-.08728A.17618.17618,0,0,1,.60248.97888.10551.10551,0,0,1,.67741.97548a1.40428,1.40428,0,0,1,.134.05362A.31369.31369,0,0,0,.79123.995C.7228.90564.65228.8178.586.72689a.11771.11771,0,0,1-.027-.13183A.07424.07424,0,0,1,.66309.55841a.38512.38512,0,0,1,.144.112C.83582.70506.86321.741.88834.77836A.11608.11608,0,0,1,.89639.82205C.88031.824.85994.8331.84893.82653A1.26609,1.26609,0,0,1,.73551.74688.87669.87669,0,0,0,.64545.68138l.005.013Q.76529.82778.88068.96073a.45638.45638,0,0,0,.0544.05659.83584.83584,0,0,0,.09916.07095.07.07,0,0,1,.03729.08955.04662.04662,0,0,0,.01046.03734c.08849.09643.1767.19322.26868.28625a.40619.40619,0,0,0,.09206.0538l.00747-.008c-.02712-.03748-.05255-.07634-.08182-.11207a.29859.29859,0,0,0-.103-.09977c-.02218-.01-.0359-.04033-.05168-.06269-.04752-.06739-.09427-.13532-.14109-.2032a.279.279,0,0,1-.03-.04736C1.01105.94727.9766.87319.95157.7961A.20141.20141,0,0,1,1.01651.56853c.03781-.03279.07758-.06345.11782-.09323A.12369.12369,0,0,1,1.18474.45181.0426.0426,0,0,0,1.225.41582c.003-.01112.02208-.0179.03388-.02664.00737.0129.02154.02629.02064.03858a.05378.05378,0,0,0,.02406.04988.3378.3378,0,0,1,.117.2039c.01513.09136.03567.1821.04546.274a2.65388,2.65388,0,0,1,.01028.26942.054.054,0,0,1-.03291.04042c-.02806.00506-.0323-.02036-.03283-.04306C1.4079,1.10966,1.40727.9969,1.402.88435A.48334.48334,0,0,0,1.33776.65881.60887.60887,0,0,0,1.28263.58954L1.27085.59374A.26269.26269,0,0,0,1.26991.6353c.00962.07315.02085.14609.03033.21925.00627.04834.00854.09726.01613.14536a1.02078,1.02078,0,0,0,.04576.23848.5727.5727,0,0,0,.16876.27752c-.00589-.0388-.01266-.074-.01636-.10949a1.65159,1.65159,0,0,1-.00433-.419A.35878.35878,0,0,1,1.63034.78.05244.05244,0,0,1,1.715.78914a.5713.5713,0,0,1,.041.07931c.00747.01541.01356.03148.02385.05567.01634-.04532.027-.08361.04362-.11912A2.01653,2.01653,0,0,1,1.92238.61211.18548.18548,0,0,1,1.99625.5517c.02091-.01077.02881-.02046.02509-.04216A.13636.13636,0,0,1,2.01972.4833c.00058-.02416.00543-.04744.03539-.048.02951-.00055.04152.02009.0432.04671.00189.02994.00089.06009.00355.08993a.10943.10943,0,0,0,.01268.04233.89741.89741,0,0,1,.10358.624c-.01584.08053-.06387.15423-.088.23384a.18285.18285,0,0,0,.00347.11874.97884.97884,0,0,0,.19264.323c.1044.10031.20083.20893.30073.31394L2.63844,2.219l-.02685-.03915-.02642-.041c-.09652-.1519-.19974-.30009-.28672-.45727a.7424.7424,0,0,1-.08452-.26623.30068.30068,0,0,1,.11044-.28138c.02154-.0172.04259-.035.06459-.05164.03159-.02383.06457-.04014.10257-.012l.01029.00386c.07711-.01778.10754.043.14749.08748.0097.0108.01837.02254.03237.03985.02063-.05264.03928-.09723.05568-.14262.04719-.13066.09315-.26176.14032-.39243C2.889.6351,2.89675.596,2.93587.59a.09239.09239,0,0,1,.08621.05084A2.108,2.108,0,0,1,3.20249.9069a1.00882,1.00882,0,0,1,.08673.58251,1.03587,1.03587,0,0,1-.264.56635c-.02248.0256-.02193.0416.00324.061a.36486.36486,0,0,1,.02812.02492c.03487.03306.031.05125-.02086.07107.01718.04856.03256.09829.05217.14628.04973.12171.09577.24544.1543.36286a1.23256,1.23256,0,0,0,.13962.19883c.03365.04317.07507.08021.11152.12131.03051.03441.02323.05906-.02593.10043l.168.20768.009-.00339q.00562-.13047.01118-.26094c.00057-.01376-.0005-.02763.00075-.04131a.04483.04483,0,0,0-.02959-.04938.24766.24766,0,0,1-.05753-.0468.03927.03927,0,0,1-.00226-.05987.03762.03762,0,0,0-.00015-.03474,1.85274,1.85274,0,0,0-.10978-.16138.55773.55773,0,0,1-.09161-.49806,1.12333,1.12333,0,0,1,.21587-.42992c.071-.09477.1519-.18216.22984-.27158a.06649.06649,0,0,1,.12084.01309c.07244.1512.14712.30151.21348.45538a1.41714,1.41714,0,0,1,.11063.48445.52625.52625,0,0,1-.24045.46882.48287.48287,0,0,1-.30624.106.128.128,0,0,0-.01834.00294,1.10481,1.10481,0,0,0,.02141.31539Zm.06523-1.31272.0122.00571c.02405-.01553.0488-.03009.07194-.04688.01946-.01412.03876-.02733.06-.00677.02136.02073.00388.03757-.00839.05547a1.05178,1.05178,0,0,0-.07633.11913c-.01275.02539-.02847.04419-.054.04515-.02909.00109-.0321.01776-.03493.03825-.0065.04714-.0151.09416-.01809.14152a.38759.38759,0,0,0,.01265.06674c.00228.01842.00838.045-.001.05459a.13985.13985,0,0,0-.0312.09351c-.00675.06477-.01341.12955-.01952.19438a.05689.05689,0,0,0,.00212.03291.07067.07067,0,0,1-.004.0806c-.01791.03308-.00916.04734.029.05195a.20933.20933,0,0,0,.045.00113.46976.46976,0,0,0,.38231-.26813.6142.6142,0,0,0,.04495-.43963,1.53514,1.53514,0,0,0-.22358-.50059c-.0351-.05174-.06826-.10489-.10021-.15864-.015-.02517-.02892-.02684-.05-.00856-.01982.01722-.04083.03308-.0616.04919a1.08634,1.08634,0,0,0-.21438.264l.18.22255.01252-.00348a.5514.5514,0,0,0,.021-.08555c.00653-.07474.00515-.15036.01515-.22451a.33881.33881,0,0,1,.0442-.10853c.00465-.00867.029-.01211.04207-.00891.00763.00187.01746.02335.015.03313-.01261.0495-.0291.098-.04392.147C3.82456,1.92131,3.80841,1.97579,3.79212,2.03023Zm-1.03829.4534a.21741.21741,0,0,0-.02341-.02855c-.075-.05833-.14889-.11826-.22612-.1735a1.10183,1.10183,0,0,0-.154-.09218,1.34169,1.34169,0,0,0-.35-.097.31757.31757,0,0,0-.19079.0188c-.09725.042-.19727.07757-.296.11607-.02263.00882-.04389.00763-.05483-.01571a.04417.04417,0,0,1,.01652-.05938c.01855-.01268.03615-.027.0556-.03809a.45041.45041,0,0,1,.22012-.07787c.04951-.00032.099-.00275.15016-.00428-.01747-.02425-.03417-.04422-.04737-.0663a.1683.1683,0,0,0-.26881-.04694c-.01051.00882-.01982.01907-.02961.02873q-.10275.1014-.20541.20287c-.021.02077-.04132.04212-.06031.06153a.90539.90539,0,0,1,.10629.05208.48447.48447,0,0,1,.18046.19655c.01242.0265.03156.03207.05341.01232a1.48669,1.48669,0,0,0,.13749-.13034,1.35728,1.35728,0,0,0,.08965-.13812.22627.22627,0,0,1,.12343-.09775.05.05,0,0,1,.045.01383.0734.0734,0,0,1,.00513.05495.24133.24133,0,0,1-.03625.05657c-.02605.03778-.05235.07539-.08015.11538l.01546.00294a.77982.77982,0,0,1,.30794.02347.48049.48049,0,0,0,.13.01021.23493.23493,0,0,1,.1933.06122C2.613,2.49971,2.68005,2.48652,2.75383,2.48363ZM2.95134.721c-.03448.03616-.03441.04048-.0045.0788a.06091.06091,0,0,1,.01342.03029q.00915.11792.01534.236c.0004.00767-.00829.01582-.01276.02375-.00785-.00626-.0199-.011-.02278-.01907-.00881-.02467-.01419-.05058-.02075-.076l-.038-.14846a.09864.09864,0,0,0-.01214.01557q-.07855.18674-.15639.37377a.03545.03545,0,0,0-.002.02538c.036.074.038.16415.11206.22055a.53532.53532,0,0,1,.07565.09128c.00338-.01791.00661-.03181.00854-.0459.00867-.06322.01526-.12679.0262-.18961.00466-.02673.02115-.05276.0541-.0438.03359.00914.02484.03684.0189.06233-.01114.04776-.02041.096-.0322.15233.07237-.05853.13711-.10947.20007-.16251.02511-.02115.04834-.03885.079-.01789A.7045.7045,0,0,0,2.95134.721ZM3.289,2.94671l.006-.00407-.00916-.01942a1.99492,1.99492,0,0,1-.102-.19607c-.0697-.178-.13349-.35831-.19886-.538-.01168-.03211-.01922-.06453-.06035-.0736-.01046-.00231-.02-.01832-.02594-.03005a.30562.30562,0,0,0-.15048-.13381c-.03179-.01528-.06523-.02709-.09543-.03944-.00835.02891-.01787.05975-.02595.091a.08612.08612,0,0,0-.0023.03313.24042.24042,0,0,0,.06909.15007,1.026,1.026,0,0,1,.08794.08706.32631.32631,0,0,0,.19981.12291c.03254.0053.05631.0227.052.06111a.06123.06123,0,0,1-.06848.05023c-.03569-.00009-.04586.01376-.02957.04453a.25847.25847,0,0,0,.0372.05065c.02677.02971.05566.05751.08268.087Q3.1725,2.81795,3.289,2.94671Zm.41146-.55427.01447-.0045c.0042-.03276.00694-.0658.01305-.09821.00529-.02806.0038-.04719-.03036-.05452a.07192.07192,0,0,1-.0363-.03021c-.03723-.05331-.07321-.10754-.10841-.16222-.01453-.02257-.026-.04713-.04367-.07977a1.43081,1.43081,0,0,0-.07641.149.42346.42346,0,0,0-.00867.32844.87508.87508,0,0,0,.16228.2843c.02248.02306.048.0431.07871.07032.01095-.097.02054-.18129.02978-.26563a.027.027,0,0,0-.0031-.01446.76855.76855,0,0,0-.19572-.27607c-.02-.01537-.03365-.03524-.01677-.0574.01831-.024.04445-.01578.06283.00146a.53113.53113,0,0,1,.06391.07289C3.63884,2.30044,3.66915,2.34682,3.70048,2.39244ZM2.369,2.09669l.00537-.00861c-.07181-.08879-.13953-.18136-.21695-.26494a.39739.39739,0,0,1-.11327-.1635c-.00891-.03376-.01715-.06778-.02832-.1008C2.01278,1.54972,2,1.53709,1.99215,1.53742A.15059.15059,0,0,1,1.86457,1.471,1.02153,1.02153,0,0,1,1.806,1.38127a.51415.51415,0,0,1-.01335.13141.16871.16871,0,0,0,.00162.1047c.005.02054.01459.04.01964.06051a.14719.14719,0,0,0,.09024.12195.1722.1722,0,0,1,.03322.02413q.08862.05945.17761.11834c.051.03361.10188.06752.15388.09957C2.30125,2.0618,2.33559,2.07853,2.369,2.09669Zm-.47694.80854a.61261.61261,0,0,0,.23847-.01989,1.06191,1.06191,0,0,0,.34041-.1998A.3349.3349,0,0,0,2.52921,2.634c.02661-.03376.01236-.06387-.03032-.06685a.49975.49975,0,0,0-.248.04488A1.23357,1.23357,0,0,0,1.89209,2.90523Zm.33626-.33947a1.07682,1.07682,0,0,0-.44352.0912.76961.76961,0,0,0-.183.12118.16566.16566,0,0,1-.04983.02927.14456.14456,0,0,0-.08939.06969A1.29308,1.29308,0,0,0,1.78214,2.93c-.00066-.05643-.0032-.05974.04505-.09665.07637-.05843.15561-.11327.23541-.167C2.11426,2.63155,2.16908,2.60147,2.22835,2.56576ZM2.06278,1.34218a.67112.67112,0,0,0-.0564-.644.15554.15554,0,0,0-.01715.02426,1.13693,1.13693,0,0,0-.134.429.30645.30645,0,0,0,.08625.24564c.01063.01046.02329.01886.04176.0336-.00926-.09619-.01981-.18167-.025-.26747C1.954,1.094,1.95495,1.02433,1.95638.9549c.00056-.02708.01945-.04815.04685-.03929a.06186.06186,0,0,1,.03253.0453c.00675.08567.00793.17176.013.25758C2.05122,1.25984,2.058,1.301,2.06278,1.34218Zm-.87247.08812.00448-.00684a.07081.07081,0,0,0-.00985-.01411,1.95726,1.95726,0,0,0-.22435-.19147,2.55608,2.55608,0,0,0-.30478-.14907A.04562.04562,0,0,0,.617,1.08018a.09955.09955,0,0,0,.00629.15463.93737.93737,0,0,0,.14349.0935c.04375.02456.091.043.13736.06442.02675-.07525.0413-.08068.10456-.0471l.02284.01288Q1.11081,1.39464,1.1903,1.43029Zm1.35792.41622.00435-.08832a1.894,1.894,0,0,1,.08888-.42535A.10481.10481,0,0,0,2.61173,1.218a.87313.87313,0,0,0-.07327-.05829.31626.31626,0,0,0-.05812.09259,1.45713,1.45713,0,0,0-.02419.2222A1.98078,1.98078,0,0,0,2.459,1.677.19428.19428,0,0,0,2.54823,1.84651ZM3.25388,1.384l-.01474.01194q-.10851.09221-.21707.18436A.38572.38572,0,0,0,2.97246,1.62c-.00808.00961-.00675.02714-.00964.04111a.0991.0991,0,0,0,.03074.00565c.0393-.00561.07835-.01309.11745-.02009.02928-.00524.05176.0051.05647.03457A.04781.04781,0,0,1,3.13,1.74157c-.05794.01269-.11613.02425-.1827.038l.03235.20783A.65475.65475,0,0,0,3.25388,1.384ZM1.66654.8735a.5733.5733,0,0,0-.10076.29723.948.948,0,0,0,.05368.26511.2456.2456,0,0,0,.01935-.04423c.01116-.02464.01837-.057.038-.07064.04216-.02936.04166-.07037.04667-.11189A.59945.59945,0,0,0,1.66654.8735Zm1.07435.64132-.05875.29909c.06309-.01165.09389.02778.12069.077a.49223.49223,0,0,0,.1366.13679c-.01068-.083-.019-.15564-.02991-.2279A.17128.17128,0,0,0,2.88794,1.734C2.83966,1.65872,2.78852,1.58529,2.74089,1.51482ZM1.15106,1.00944,1.1568,1.009C1.1355.94253,1.115.87579,1.09244.80977c-.00734-.02147-.01634-.043.0081-.0559.02573-.01354.04019.00758.04906.02709.02761.06073.05331.12234.07851.18071a.18418.18418,0,0,0,.01318-.0548C1.23811.83969,1.22962.77278,1.22578.70562,1.22289.65511,1.224.60437,1.22335.55374l-.01-.00558c-.04416.03571-.08906.07057-.132.10771a.08274.08274,0,0,0-.02494.041.29243.29243,0,0,0,.0333.2237C1.10812.95141,1.13048.97989,1.15106,1.00944Zm1.2218.20551a.1424.1424,0,0,0-.0635.13326c.00276.046.0068.092.00884.138a.37626.37626,0,0,0,.08176.18174c-.00216-.07663-.01173-.1521-.01312-.22772C2.38546,1.36506,2.34206,1.29279,2.37286,1.215ZM.698,1.667.70431,1.677a1.14066,1.14066,0,0,1,.404-.11c-.01511-.01485-.02348-.02829-.03551-.034a.25826.25826,0,0,0-.16035-.02219.18973.18973,0,0,0-.09965.0618A1.37514,1.37514,0,0,1,.698,1.667Zm1.90026.16158a.86243.86243,0,0,0,.08973-.3685.186.186,0,0,0-.01548-.05256l-.012.00214A1.24113,1.24113,0,0,0,2.59825,1.82862Zm-.17119.67629c-.08426-.04072-.154-.09636-.24717-.06426a.14.14,0,0,0,.0554.01068c.0473-.003.06905.01678.06486.06309-.00082.0091-.003.01808-.00524.03135Zm1.46954.69047a.18859.18859,0,0,0-.09676.17522.10794.10794,0,0,0,.0131.03333l.01357-.00218ZM1.97533,1.91053c-.00136.04761.05863.07124.02074.11458l.13352.00137.00214-.00817Zm-.749-.76787.00944-.00438-.00939-.05151-.02275.02243A.21157.21157,0,0,0,1.22632,1.14266Z" style="fill: rgb(255, 110, 30);"/>
  <path d="M3.92937,2.56048c-.02536.03106-.04932.05966-.07243.08894-.01937.02454-.0422.03649-.07132.01872a.04444.04444,0,0,1-.0103-.0689.3657.3657,0,0,1,.05862-.06174c.0328-.03025.06731-.05863.10041-.08856.03244-.02933.06278-.06475.11039-.06356a.07775.07775,0,0,1,.05454.02736.04706.04706,0,0,1-.01669.06608.85831.85831,0,0,1-.09115.051C3.97089,2.54076,3.94971,2.55049,3.92937,2.56048Z" style="fill: rgb(255, 110, 30);"/>
  <path d="M3.93869,2.2907c-.0208.02449-.04136.0492-.06248.07341-.015.01725-.03177.03628-.05666.01926a.0415.0415,0,0,1-.006-.06313.27873.27873,0,0,1,.05494-.05495.32947.32947,0,0,1,.06933-.04351.11815.11815,0,0,1,.04646.00017.16913.16913,0,0,1-.01047.04605c-.006.01113-.02036.01775-.031.02636Z" style="fill: rgb(255, 110, 30);"/>
  <path d="M2.83038,1.11067c.0343.06684.06521.1237.092.18245a.0447.0447,0,0,1-.01384.04117A.044.044,0,0,1,2.86574,1.33a.364.364,0,0,1-.09425-.187.04665.04665,0,0,1,.02386-.03613C2.80659,1.10164,2.824,1.1097,2.83038,1.11067Z" style="fill: rgb(255, 110, 30);"/>
  <text style="fill: rgb(255, 110, 30); font-family: &quot;Helvetica Neue&quot;, Helvetica, Arial-Unicode, Arial, sans-serif; font-size: 5px; font-weight: 700; white-space: pre;" x="0" y="20">Created by Alice Noir</text>
  <text style="fill: rgb(255, 110, 30); font-family: &quot;Helvetica Neue&quot;, Helvetica, Arial-Unicode, Arial, sans-serif; font-size: 5px; font-weight: 700; white-space: pre;" x="0" y="25">from the Noun Project</text>
</svg>